<svg width="525" height="320" viewBox="0 0 525 320" fill="none" xmlns="http://www.w3.org/2000/svg">
<path d="M208 13C186.468 13 164.918 12.7179 143.389 13.1111C135.548 13.2543 115.233 11.7843 109.444 19.7778C104.875 26.0879 154.911 46.578 161.278 47.3333C168.012 48.1323 172.99 44.6065 175.333 38.2222C178.982 28.2817 169.939 26.5236 161.556 25.2222C124.453 19.4627 64.441 25.7735 65.2778 74.7222C65.6077 94.021 74.236 112.361 86 127.333C91.78 134.69 100.822 145.967 110.778 147.833C113.779 148.396 115.085 146.992 115 144C114.863 139.193 104.117 139.45 101 139.222C96.9222 138.924 86.1798 136.942 84.6667 142.444C81.5087 153.928 86.8684 169.621 92.0555 179.722C94.126 183.754 98.9173 192.895 105 190.556C108.766 189.107 111.341 179.878 109.333 176.444C106.032 170.8 89.3053 172.105 84.1667 172.778C75.9552 173.853 67.9608 178.745 66.4444 187.444C61.403 216.367 94.1296 230.65 117.722 221.167C128.329 216.903 134.114 209.426 137.333 198.778C138.616 194.535 134.868 195.755 135 198.667C135.738 214.894 155.429 230.647 166.5 239.833C180.514 251.462 196.148 261.424 213.278 267.778C224.92 272.096 239.465 276.162 251.833 272.278C263.661 268.563 271.5 254.74 270.778 242.667C270.454 237.254 268.041 234 262.611 234C257.013 234 263.945 237.583 265.778 238.444C291.437 250.499 323.936 252.684 351.778 254.333C364.423 255.082 383.144 256.631 390.667 243.611C395.65 234.987 387.38 232.426 380 231.667C376.806 231.338 364.416 230.365 363 235C360.991 241.576 407.091 240.771 410.556 240.556C431.316 239.262 450.584 232.159 460.5 212.611C466.491 200.801 473.188 176.611 463.333 164.889C459.845 160.739 450.54 156.306 445.222 159.556C438.921 163.406 455.772 176.242 457.5 177.444C468.186 184.883 485.964 193.49 499.556 190.889C515.41 187.855 518.351 163.98 518.778 151.222C519.452 131.082 509.099 121.886 489.778 117.444C478.843 114.931 467.365 114.068 456.167 114.611C452.744 114.777 446.764 114.587 443.833 117C440.429 119.804 447.053 120.711 448.444 120.778C459.857 121.326 468.658 112.553 473.778 103.167C480.587 90.6831 483.661 73.7817 481.333 59.6667C478.206 40.6994 456.4 39.438 440.889 40.4444C429.836 41.1616 419.285 43.8568 413.222 53.7778C409.681 59.5726 413.905 59.4164 419.389 59.3333C430.936 59.1584 441.227 52.2347 447.556 42.7778C459.096 25.5312 439.275 17.3537 424.889 13C392.666 3.24848 351.988 -1.83838 319 7.05556C305.626 10.6614 289.359 19.5669 286.444 34.5556C285.095 41.4943 287.828 45.3372 294.722 46.3889C300.344 47.2465 314.806 48.7814 317.667 41.8333C322.898 29.1281 278.563 22.513 273.889 21.6667C227.622 13.2887 175.029 10.8677 130.111 27C119.86 30.6818 104.129 37.0031 100.222 48.7222C98.2534 54.6285 120.374 57.7528 123.333 58.3889C129.89 59.7983 140.702 63.4392 147.556 61.7778C160.37 58.6713 121.064 59.8254 108 61.6111C75.5634 66.0449 41.7811 76.0483 15 95.5556C5.37066 102.57 -1.96067 111.706 3.66666 123.778C7.42635 131.843 34.2341 155.652 40.3889 138.556C41.2738 136.097 39.1075 133.467 38.2222 136.444C35.4852 145.651 40.9209 153.92 46.8889 160.444C61.2472 176.14 80.5089 184.272 101.444 186.611C117.73 188.431 139.024 188.433 152.111 176.778C154.133 174.977 164.308 162.495 157.611 160.722C147.28 157.987 137.435 166.857 134.722 176C128.165 198.102 138.594 222.829 151.333 240.556C161.345 254.486 174.188 267.203 188.111 277.222C196.887 283.538 207.188 289.138 218.333 288.889C229.536 288.639 239.062 281.09 245.722 272.667C246.587 271.573 249.464 265.391 249 266.667C246.148 274.51 262.468 282.453 266.778 284.889C300.795 304.116 341.554 314.787 380.389 317.444C392.41 318.267 415.854 320.946 421.778 306.444C423.786 301.527 421.187 301 417 301C416.744 301 411.842 301.137 412.278 301.5C413.891 302.844 419.336 301.945 420.944 301.778C429.513 300.888 437.381 297.556 444.611 292.944C464.748 280.101 478.307 258.666 483.889 235.667C487.599 220.378 489.62 197.989 471 191.889C462.469 189.094 450.959 189.698 444.778 196.944C443.007 199.02 440.093 204.514 443.889 206.222C456.482 211.889 474.846 204.469 485.389 197.889C506.227 184.882 523.09 160.765 522.889 135.444C522.747 117.556 504.74 110.47 489.444 108.667C481.643 107.747 463.709 106.659 460.444 116.778C458.389 123.15 465.583 126.028 470.556 126.722C486.993 129.016 506.429 118.973 515.056 104.889C525.126 88.4467 513.217 71.9052 501.222 60.5556C478.478 39.0353 447.333 21.2705 415.444 20C379.796 18.5797 355.323 42.5076 337.556 70.8889C335.381 74.3628 315.197 105.37 326.333 107.556C336.096 109.472 349.155 108.303 357.667 102.944C371.994 93.9235 353.208 86.2497 344.667 82.6667C302.393 64.9325 254.028 57.4542 208.333 58.8889C183.961 59.6541 148.515 67.075 137.444 92.5556C136.299 95.1923 132.536 105.641 136.389 107.889C142.577 111.499 154.041 107.635 159.333 104C165.68 99.6405 167.603 95.2222 158.056 95.2222C131.341 95.2222 104.474 106.991 83.7778 123.389C69.9444 134.349 62.5179 149.07 62.4444 166.778C62.3819 181.857 67.2793 198.476 82 205.333C94.8798 211.333 107.507 200.577 114.611 190.556C121.196 181.266 124.424 170.915 110.111 169.722C68.2066 166.23 24.0811 196.157 16.6667 238.667C15.4186 245.822 13.3414 253.52 21.3333 257C30.9853 261.203 43.0426 263 53.5555 263C60.0943 263 44.8165 261.609 43.5555 261.556C41.1763 261.455 26.4275 260.582 30.3889 266.722C39.423 280.725 63.4128 287.769 78.2222 291.111C124.547 301.566 167.303 286.704 199.778 252.667C213.033 238.773 224.875 221.284 228.278 202C229.282 196.307 225.053 196.413 221.222 199.222C217.268 202.122 215.732 207.459 219.167 211.333C233.958 228.021 262.115 233.537 283.056 235.667C295.514 236.934 311.025 237.836 319.111 226.222C322.772 220.964 320.169 219.915 315.222 220C309.929 220.091 312.981 222.219 316.5 223.111C343.1 229.855 373.816 231.14 401 228.611C419.296 226.909 440.474 221.284 448.889 203C453.345 193.317 450.557 183.342 439.833 180.278C438.642 179.937 425.437 179.542 427.222 180.778C431.805 183.95 445.31 178.472 449.222 176.333C459.741 170.583 467.113 159.142 468.111 147.167C469.653 128.668 446.633 127.222 433.278 127.222C424.16 127.222 410.214 127.781 403.667 135.556C399.175 140.89 421.271 145.441 423 146" stroke="black" stroke-width="3" stroke-linecap="round"/>
</svg>
